<svg width="22" height="22" viewBox="0 0 22 22" fill="none" xmlns="http://www.w3.org/2000/svg">
<path d="M21.3555 16.2637H0.644531C0.288578 16.2637 0 16.5522 0 16.9082C0 18.4507 1.25043 19.7012 2.79297 19.7012H19.207C20.7495 19.7012 22 18.4507 22 16.9082C22 16.5522 21.7114 16.2637 21.3555 16.2637Z" fill="url(#paint0_linear_33_2751)"/>
<path d="M12.7188 4.36081V4.01758C12.7188 3.06836 11.9492 2.29883 11 2.29883C10.0508 2.29883 9.28125 3.06836 9.28125 4.01758V4.36081C9.84513 4.27595 10.4192 4.23242 11 4.23242C11.5808 4.23242 12.1549 4.27595 12.7188 4.36081Z" fill="url(#paint1_linear_33_2751)"/>
<path d="M18.1398 8.47902C16.2326 6.57181 13.6969 5.52148 10.9997 5.52148C8.30248 5.52148 5.76677 6.57181 3.85955 8.47902C2.10509 10.2335 1.07646 12.52 0.922852 14.9746H21.0765C20.9228 12.52 19.8943 10.2335 18.1398 8.47902Z" fill="url(#paint2_linear_33_2751)"/>
<defs>
<linearGradient id="paint0_linear_33_2751" x1="11.0341" y1="12.8262" x2="11.0356" y2="19.7012" gradientUnits="userSpaceOnUse">
<stop stop-color="#FFEDCB"/>
<stop offset="1" stop-color="#EFAB33"/>
</linearGradient>
<linearGradient id="paint1_linear_33_2751" x1="11.0053" y1="0.236842" x2="11.0089" y2="4.36081" gradientUnits="userSpaceOnUse">
<stop stop-color="#FFEDCB"/>
<stop offset="1" stop-color="#EFAB33"/>
</linearGradient>
<linearGradient id="paint2_linear_33_2751" x1="11.0309" y1="-3.93165" x2="11.0439" y2="14.9746" gradientUnits="userSpaceOnUse">
<stop stop-color="#FFEDCB"/>
<stop offset="1" stop-color="#EFAB33"/>
</linearGradient>
</defs>
</svg>
