<svg width="32" height="30" viewBox="0 0 32 30" fill="none" xmlns="http://www.w3.org/2000/svg">
<rect width="32" height="30" rx="10" fill="url(#paint0_linear_33_2728)"/>
<path d="M20.9093 8H11.7152C10.6771 8 9.88623 8.8 9.88623 9.85V19.15C9.88623 20.2 10.6771 21 11.7152 21H20.9093C21.9474 21 22.7383 20.2 22.7383 19.15V9.85C22.7383 8.8 21.9474 8 20.9093 8ZM16.3122 18.4C18.4378 18.4 20.1679 16.7 20.1679 14.65C20.1679 14.3 20.1184 13.9 20.0196 13.6H21.107V18.9C21.107 19.15 20.9093 19.4 20.6127 19.4H12.0118C11.7646 19.4 11.5175 19.2 11.5175 18.9V13.55H12.6544C12.5555 13.9 12.5061 14.25 12.5061 14.6C12.4566 16.7 14.1867 18.4 16.3122 18.4ZM16.3122 16.9C14.9282 16.9 13.8407 15.8 13.8407 14.45C13.8407 13.1 14.9282 12 16.3122 12C17.6963 12 18.7838 13.1 18.7838 14.45C18.7838 15.85 17.6963 16.9 16.3122 16.9ZM21.0576 11.55C21.0576 11.85 20.8105 12.1 20.5139 12.1H19.1298C18.8332 12.1 18.5861 11.85 18.5861 11.55V10.2C18.5861 9.9 18.8332 9.65 19.1298 9.65H20.5139C20.8105 9.65 21.0576 9.9 21.0576 10.2V11.55Z" fill="white"/>
<defs>
<linearGradient id="paint0_linear_33_2728" x1="6.8" y1="26.625" x2="26.5865" y2="4.723" gradientUnits="userSpaceOnUse">
<stop stop-color="#EEA054"/>
<stop offset="0.502762" stop-color="#D64763"/>
<stop offset="1" stop-color="#B62A99"/>
</linearGradient>
</defs>
</svg>
