<svg width="20" height="20" viewBox="0 0 20 20" fill="none" xmlns="http://www.w3.org/2000/svg">
<path d="M5.89844 7.15375C5.5466 7.22562 5.20527 7.33785 4.90051 7.53426L4.26652 6.5489C4.76297 6.2291 5.31852 6.02277 5.89844 5.93988V1.31641L0 2.48855V18.9177L5.89844 17.7459V7.15375ZM3.55469 9.99988H2.38281C2.38281 9.07004 2.68609 8.19285 3.26059 7.46387L4.1807 8.18941C3.77098 8.70957 3.55469 9.33554 3.55469 9.99988Z" fill="url(#paint0_linear_33_2791)"/>
<path d="M12.9297 12.8689V2.27686L7.07031 1.30029V17.7228L12.9297 18.6993V14.0457C12.1579 13.9335 11.4223 13.6139 10.8303 13.1006L11.5982 12.2148C11.9844 12.5499 12.4391 12.7701 12.9297 12.8689ZM7.70145 7.33393L8.18895 6.2685C9.02148 6.64901 9.71102 7.30647 10.1304 8.11959L9.08902 8.65748C8.78922 8.07608 8.29656 7.60631 7.70145 7.33393ZM9.9634 12.0512C9.60402 11.4309 9.41406 10.7214 9.41406 9.99983C9.41406 9.8585 9.40434 9.71889 9.3843 9.58327L10.5447 9.4162C10.5716 9.60674 10.5859 9.80127 10.5859 9.99983C10.5859 10.5154 10.7216 11.0218 10.9773 11.4641L9.9634 12.0512Z" fill="url(#paint1_linear_33_2791)"/>
<path d="M14.1016 18.6833L20 17.5112V1.08203L14.1016 2.25383V18.6833ZM16.4453 10.001C16.4453 10.0002 16.4453 10.0005 16.4453 9.99984C16.4453 9.94261 16.4453 8.82796 16.4453 8.82796H17.6172V9.99984C17.6176 10.392 17.5622 10.7807 17.453 11.1546L16.328 10.825C16.4064 10.5583 16.4459 10.2814 16.4453 10.001ZM15.9023 11.6993L16.8568 12.3791C16.324 13.1264 15.5481 13.6791 14.6709 13.9366L14.3413 12.8116C14.9673 12.6285 15.5218 12.2332 15.9023 11.6993Z" fill="url(#paint2_linear_33_2791)"/>
<defs>
<linearGradient id="paint0_linear_33_2791" x1="2.95835" y1="-16.2849" x2="3.11237" y2="18.917" gradientUnits="userSpaceOnUse">
<stop stop-color="#FFEDCB"/>
<stop offset="1" stop-color="#EFAB33"/>
</linearGradient>
<linearGradient id="paint1_linear_33_2791" x1="10.0091" y1="-16.0988" x2="10.1606" y2="18.6987" gradientUnits="userSpaceOnUse">
<stop stop-color="#FFEDCB"/>
<stop offset="1" stop-color="#EFAB33"/>
</linearGradient>
<linearGradient id="paint2_linear_33_2791" x1="17.0599" y1="-16.5193" x2="17.2139" y2="18.6826" gradientUnits="userSpaceOnUse">
<stop stop-color="#FFEDCB"/>
<stop offset="1" stop-color="#EFAB33"/>
</linearGradient>
</defs>
</svg>
