<svg width="32" height="30" viewBox="0 0 32 30" fill="none" xmlns="http://www.w3.org/2000/svg">
<rect width="32" height="30" rx="10" fill="#2F89CE"/>
<ellipse cx="15.8176" cy="15" rx="14.8293" ry="15" fill="#2F89CE"/>
<path d="M8.16872 15.2399L11.578 16.5175L12.9071 20.8148C12.9649 21.1051 13.3116 21.1632 13.5427 20.989L15.4496 19.4211C15.623 19.2468 15.9119 19.2468 16.143 19.4211L19.5524 21.9181C19.7835 22.0924 20.1302 21.9762 20.188 21.6859L22.7305 9.49079C22.7883 9.20043 22.4994 8.91008 22.2105 9.02622L8.16872 14.485C7.82201 14.6011 7.82201 15.1238 8.16872 15.2399ZM12.7337 15.8787L19.4368 11.7556C19.5523 11.6975 19.6679 11.8717 19.5524 11.9298L14.0628 17.0982C13.8894 17.2724 13.7161 17.5047 13.7161 17.7951L13.5427 19.1888C13.5427 19.363 13.2538 19.4211 13.196 19.1888L12.5026 16.6336C12.3292 16.3433 12.4448 15.9948 12.7337 15.8787Z" fill="white"/>
</svg>
