<svg width="18" height="18" viewBox="0 0 18 18" fill="none" xmlns="http://www.w3.org/2000/svg">
<path d="M15.364 2.63605C13.6641 0.936176 11.404 0 9 0C6.59602 0 4.33589 0.936176 2.63602 2.63605C0.936141 4.33593 0 6.59602 0 9C0 11.404 0.936141 13.6641 2.63602 15.3639C4.33589 17.0638 6.59602 18 9 18C11.404 18 13.6641 17.0638 15.364 15.3639C17.0639 13.6641 18 11.404 18 9C18 6.59602 17.0639 4.33589 15.364 2.63605ZM9 16.2335C5.01142 16.2335 1.76653 12.9885 1.76653 9C1.76653 8.99346 1.76674 8.98699 1.76678 8.98052C1.76678 8.97887 1.76653 8.97729 1.76653 8.97564C1.76653 8.97286 1.76688 8.97019 1.76695 8.96745C1.7845 5.02668 4.96919 1.82053 8.9017 1.7678C8.90993 1.76741 8.91809 1.76657 8.92642 1.76657C8.93141 1.76657 8.93626 1.76716 8.94122 1.7673C8.96084 1.76716 8.98038 1.76657 9.00004 1.76657C12.9886 1.76657 16.2335 5.01149 16.2335 9.00004C16.2335 12.9886 12.9886 16.2335 9 16.2335Z" fill="url(#paint0_linear_33_2781)"/>
<path d="M14.4948 9.43449C14.2007 9.43449 13.9623 9.19606 13.9623 8.90195C13.9623 8.60783 14.2007 8.3694 14.4948 8.3694H15.1368C14.8353 5.4136 12.4381 3.06878 9.45931 2.84863V3.40744C9.45931 3.70156 9.22088 3.93999 8.92676 3.93999C8.63264 3.93999 8.39421 3.70156 8.39421 3.40744V2.86136C5.45951 3.14894 3.12187 5.50167 2.85739 8.44298H3.43226C3.72638 8.44298 3.96481 8.68141 3.96481 8.97553C3.96481 9.26965 3.72638 9.50808 3.43226 9.50808H2.85303C3.09789 12.4967 5.4824 14.8886 8.46783 15.1451V14.47C8.46783 14.1759 8.70626 13.9374 9.00038 13.9374C9.2945 13.9374 9.53293 14.1759 9.53293 14.47V15.1451C12.5428 14.8865 14.9418 12.4574 15.1532 9.43449H14.4948ZM11.1562 7.5973L9.37697 9.37652C9.27709 9.4764 9.14167 9.53251 9.00041 9.53251C8.85919 9.53251 8.7237 9.4764 8.62385 9.37652L5.52684 6.2795C5.31885 6.07155 5.31885 5.73437 5.52684 5.52638C5.73479 5.3184 6.07197 5.3184 6.27995 5.52638L9.00045 8.24684L10.4031 6.84418C10.6111 6.63619 10.9482 6.63619 11.1562 6.84418C11.3641 7.05213 11.3641 7.38935 11.1562 7.5973Z" fill="url(#paint1_linear_33_2781)"/>
<defs>
<linearGradient id="paint0_linear_33_2781" x1="9.02786" y1="-18" x2="9.08065" y2="17.9999" gradientUnits="userSpaceOnUse">
<stop stop-color="#FFEDCB"/>
<stop offset="1" stop-color="#EFAB33"/>
</linearGradient>
<linearGradient id="paint1_linear_33_2781" x1="9.02218" y1="-9.44785" x2="9.05823" y2="15.145" gradientUnits="userSpaceOnUse">
<stop stop-color="#FFEDCB"/>
<stop offset="1" stop-color="#EFAB33"/>
</linearGradient>
</defs>
</svg>
