<svg width="32" height="30" viewBox="0 0 32 30" fill="none" xmlns="http://www.w3.org/2000/svg">
<rect width="32" height="30" rx="10" fill="#48C95F"/>
<ellipse cx="14.8293" cy="15" rx="14.8293" ry="15" fill="#48C95F"/>
<path d="M20.5683 10.1875C19.1732 8.78125 17.3131 8 15.3496 8C11.2677 8 7.96085 11.3333 7.96085 15.4479C7.96085 16.75 8.32254 18.0521 8.94258 19.1458L7.90918 23L11.8361 21.9583C12.9212 22.5312 14.1096 22.8438 15.3496 22.8438C19.4316 22.8438 22.7384 19.5104 22.7384 15.3958C22.6868 13.4688 21.9634 11.5937 20.5683 10.1875ZM18.9149 18.1042C18.7599 18.5208 18.0365 18.9375 17.6748 18.9896C17.3648 19.0417 16.9514 19.0417 16.5381 18.9375C16.2797 18.8333 15.918 18.7292 15.5047 18.5208C13.6445 17.7396 12.4561 15.8646 12.3528 15.7083C12.2495 15.6042 11.5777 14.7187 11.5777 13.7812C11.5777 12.8437 12.0428 12.4271 12.1978 12.2187C12.3528 12.0104 12.5595 12.0104 12.7145 12.0104C12.8178 12.0104 12.9728 12.0104 13.0762 12.0104C13.1795 12.0104 13.3345 11.9583 13.4895 12.3229C13.6445 12.6875 14.0062 13.625 14.0579 13.6771C14.1096 13.7812 14.1096 13.8854 14.0579 13.9896C14.0062 14.0938 13.9546 14.1979 13.8512 14.3021C13.7479 14.4062 13.6445 14.5625 13.5929 14.6146C13.4895 14.7187 13.3862 14.8229 13.4895 14.9792C13.5929 15.1875 13.9546 15.7604 14.5229 16.2812C15.2463 16.9062 15.8147 17.1146 16.0214 17.2188C16.228 17.3229 16.3314 17.2708 16.4347 17.1667C16.5381 17.0625 16.8997 16.6458 17.0031 16.4375C17.1064 16.2292 17.2614 16.2812 17.4164 16.3333C17.5715 16.3854 18.5015 16.8542 18.6565 16.9583C18.8632 17.0625 18.9665 17.1146 19.0182 17.1667C19.0699 17.3229 19.0699 17.6875 18.9149 18.1042Z" fill="white"/>
</svg>
